<svg t="1607070920749" class="icon" viewBox="0 0 1024 1024" version="1.1" xmlns="http://www.w3.org/2000/svg" p-id="14536" width="192" height="192"><path d="M223.05792 445.1584l-115.50208-20.70016c9.6-36.79744 28.05248-64.9984 55.35232-84.59776 27.29984-19.59936 65.9456-29.39904 115.94752-29.39904 57.3952 0 98.8928 10.7008 124.49792 32.1024 25.6 21.4016 38.4 48.30208 38.4 80.70144 0 19.00032-5.20704 36.20352-15.60064 51.59936-10.39872 15.40096-26.10176 28.9024-47.09888 40.4992 16.99328 4.1984 29.99808 9.09824 38.99904 14.69952 14.59712 9.00096 25.94816 20.84864 34.048 35.54816s12.14976 32.25088 12.14976 52.64896c0 25.6-6.7072 50.1504-20.10112 73.6512-13.39904 23.5008-32.70144 41.6-57.90208 54.2976s-58.30144 19.05152-99.3024 19.05152c-40.00256 0-71.552-4.70016-94.64832-14.10048s-42.10176-23.14752-57.00096-41.25184c-14.90432-18.0992-26.35264-40.85248-34.35008-68.2496l122.10176-16.19968c4.80256 24.6016 12.24704 41.6512 22.3488 51.1488 10.09664 9.4976 22.94784 14.24896 38.54848 14.24896 16.39936 0 30.04928-6.00064 40.94976-18.00192 10.89536-12.00128 16.34816-28.00128 16.34816-48 0-20.39808-5.248-36.1984-15.74912-47.40096s-24.75008-16.79872-42.752-16.79872c-9.6 0-22.79936 2.40128-39.59808 7.19872l6.2976-87.30112c6.79936 1.00352 12.09856 1.50016 15.8976 1.50016 16 0 29.34784-5.09952 40.04864-15.29856 10.69568-10.19904 16.0512-22.2976 16.0512-36.3008 0-13.39904-4.00384-24.09984-12.00128-32.1024-8.00256-7.99744-19.00032-12.00128-32.9984-12.00128-14.39744 0-26.10176 4.352-35.0976 13.05088s-15.08352 23.9616-18.28352 45.75744zM535.9616 317.96224h201.90208c39.79264 0 71.95136 5.4016 96.45056 16.19968 24.49408 10.79808 44.74368 26.30144 60.7488 46.49984 16 20.20352 27.60192 43.70432 34.80064 70.5024 7.19872 26.8032 10.79808 55.19872 10.79808 85.20192 0 47.0016-5.35552 83.45088-16.0512 109.34784-10.7008 25.90208-25.5488 47.60064-44.54912 65.1008-19.00544 17.50016-39.40352 29.14816-61.19936 34.94912-29.80352 7.99744-56.8064 12.00128-80.9984 12.00128H535.9616V317.96224z m135.90016 99.59936v240.30208h33.30048c28.39552 0 48.59904-3.1488 60.60032-9.45152s21.4016-17.30048 28.20096-32.9984c6.79424-15.69792 10.19904-41.14944 10.19904-76.34944 0-46.59712-7.6032-78.49984-22.79936-95.69792-15.20128-17.19808-40.40192-25.79968-75.60192-25.79968h-33.89952z" p-id="14537"></path></svg>