<svg t="1605861555449" class="icon" viewBox="0 0 1024 1024" version="1.1" xmlns="http://www.w3.org/2000/svg" p-id="13840" width="192" height="192"><path d="M677.43 955.51H176.767A106.667 106.667 0 0 1 70.261 849.002V178.58A106.667 106.667 0 0 1 176.768 72.075h500.661A106.667 106.667 0 0 1 783.936 178.58V307.2a26.667 26.667 0 0 1-53.333 0V178.581a53.237 53.237 0 0 0-53.174-53.173H176.768a53.237 53.237 0 0 0-53.173 53.173v670.422a53.227 53.227 0 0 0 53.173 53.173h500.661a53.227 53.227 0 0 0 53.174-53.173V716.672a26.667 26.667 0 0 1 53.333 0v132.33A106.667 106.667 0 0 1 677.429 955.51z" fill="#2C2C2C" p-id="13841"></path><path d="M489.6 550.645c-10.101 46.934-45.45 81.067-108.395 81.067-79.69 0-117.333-56.405-117.333-127.893 0-68.907 38.88-130.646 119.99-130.646 66.922 0 99.37 39.286 105.503 81.302h-54.421c-5.248-19.371-18.73-38.678-52.896-38.678-44.8 0-62.123 40.31-62.123 86.048 0 42.486 15.019 87.254 63.584 87.254 35.456 0 46.656-23.755 51.392-38.4z m82.624 3.808c5.728 25.238 23.84 36.267 52.928 36.267s41.419-11.456 41.419-29.867c0-20.448-12.118-29.322-55.104-39.328-68.395-16.053-85.334-40.938-85.334-74.869 0-43.808 32.768-73.6 92.267-73.6 66.73 0 93.312 35.872 96.917 72.64h-54.73c-2.624-15.467-11.179-32.267-43.574-32.267-22.058 0-35.37 9.11-35.37 26.955 0 17.483 10.666 24.533 51.285 33.984 73.099 17.227 89.12 44.416 89.12 79.85 0 45.867-34.72 77.377-101.152 77.377-63.797 0-97.397-31.403-103.467-77.227z m234.41 0c5.729 25.238 23.84 36.267 52.918 36.267s41.419-11.456 41.419-29.867c0-20.448-12.118-29.322-55.094-39.328-68.394-16.053-85.333-40.938-85.333-74.869 0-43.808 32.768-73.6 92.267-73.6 66.73 0 93.312 35.872 96.917 72.64h-54.73c-2.625-15.467-11.18-32.267-43.585-32.267-22.048 0-35.36 9.11-35.36 26.955 0 17.483 10.667 24.533 51.275 33.984 73.099 17.227 89.13 44.416 89.13 79.85 0 45.867-34.72 77.377-101.162 77.377-63.797 0-97.397-31.403-103.467-77.227z" fill="#2C2C2C" p-id="13842"></path></svg>