<svg t="1607070974437" class="icon" viewBox="0 0 1024 1024" version="1.1" xmlns="http://www.w3.org/2000/svg" p-id="14670" width="192" height="192"><path d="M512 133.12c-209.24928 0-378.88 169.63072-378.88 378.88 0 209.2544 169.63072 378.88 378.88 378.88s378.88-169.63072 378.88-378.88-169.63072-378.88-378.88-378.88z m260.78208 555.392c-0.57856-0.65024-1.39776-1.19808-1.67936-1.94048-18.12992-48.59904-42.7008-55.2192-80.95232-21.80096-78.96064 69.01248-189.36832 81.09056-281.10848 30.76096-96.45056-52.91008-147.3024-170.3424-115.61984-267.008 34.41664-105.01632 151.86944-159.04256 252.18048-115.98848 103.1424 44.26752 146.07872 164.5056 93.93152 263.11168-3.17952 6.02112-7.15776 11.67872-9.8816 17.88928-9.39008 21.55008-1.2288 44.71808 18.7904 54.42048 19.82976 9.61024 44.83072 0.98816 54.4-18.74944 9.89184-20.3776 2.17088-42.88-18.85184-54.13888-4.40832-2.37056-9.34912-3.7376-15.92832-6.30784 33.8688-22.38976 68.02944-10.1376 74.0096 25.40032 1.80224 10.72128 3.73248 15.09888 14.7712 18.89792 34.16576 11.71968 40.83712 46.01344 15.93856 75.45344z" fill="#A9314D" p-id="14671"></path></svg>