<svg t="1605861749903" class="icon" viewBox="0 0 1024 1024" version="1.1" xmlns="http://www.w3.org/2000/svg" p-id="6811" width="192" height="192"><path d="M985.742 749.936c0 130.864-106.178 236.964-237.13 236.964H274.336c-130.994 0-237.132-106.102-237.132-236.964V276.018c0-130.902 106.138-236.966 237.132-236.966h474.274c130.954 0 237.13 106.064 237.13 236.966v473.918z" fill="#FF651E" p-id="6812"></path><path d="M414.68 216.778v80.106h-27.672V270.08h-25.33v26.804h-27.672v-80.106h27.672v26.458h25.33v-26.458h27.672m0-19.754h-27.672c-4.82 0-9.236 1.726-12.666 4.594a19.672 19.672 0 0 0-12.666-4.594h-27.672c-10.91 0-19.754 8.844-19.754 19.754v80.106c0 10.91 8.844 19.754 19.754 19.754h27.672c4.82 0 9.236-1.726 12.666-4.594a19.672 19.672 0 0 0 12.666 4.594h27.672c10.91 0 19.754-8.844 19.754-19.754v-80.106c0-10.91-8.844-19.754-19.754-19.754z m88.422 19.754v26.612h-24.354v53.494h-27.674v-53.494h-24.352v-26.612h76.38m0-19.754h-76.38c-10.91 0-19.754 8.844-19.754 19.754v26.612c0 10.91 8.844 19.754 19.754 19.754h4.598v33.74c0 10.91 8.844 19.754 19.754 19.754h27.674c10.91 0 19.754-8.844 19.754-19.754v-33.74h4.6c10.91 0 19.754-8.844 19.754-19.754v-26.612c0.002-10.91-8.844-19.754-19.754-19.754z m105.33 19.754v80.106h-27.594v-39.686l-19.032 28.5h-0.46l-19.066-28.5v39.686h-27.056v-80.106h28.87l17.714 28.194 17.756-28.194h28.868m0-19.754h-28.87a19.75 19.75 0 0 0-16.714 9.226l-1.022 1.622-1.008-1.604a19.758 19.758 0 0 0-16.726-9.244h-28.87c-10.91 0-19.754 8.844-19.754 19.754v80.106c0 10.91 8.844 19.754 19.754 19.754h27.056a19.754 19.754 0 0 0 17.822-11.224c0.414 0.026 0.828 0.04 1.244 0.04h0.46c0.404 0 0.808-0.012 1.208-0.038a19.758 19.758 0 0 0 17.822 11.222h27.594c10.91 0 19.754-8.844 19.754-19.754v-80.106c0.004-10.91-8.84-19.754-19.75-19.754z m41.414 19.754v53.648h38.944v26.458h-66.62v-80.106h27.676m0-19.754h-27.676c-10.91 0-19.754 8.844-19.754 19.754v80.106c0 10.91 8.844 19.754 19.754 19.754h66.62c10.91 0 19.754-8.844 19.754-19.754v-26.458c0-10.91-8.844-19.754-19.754-19.754H669.6v-33.894c0-10.91-8.844-19.754-19.754-19.754z m79.006 135.034h0.01m-0.01 0l-39.638 429.448-177.814 47.67-177.704-47.708-39.6-429.41h434.756m-339.066 247.06h188.732l-6.328 68.302-60.71 15.854-0.078 0.038-60.672-15.89-4.014-43.852h-54.652l7.758 84.58 111.58 29.93h0.078l111.62-29.93 14.934-161.746H439.578l-4.98-53.916h208.38l4.902-52.646H375.12l14.666 159.276m339.076-266.814H294.096a19.758 19.758 0 0 0-19.672 21.568l39.6 429.41a19.752 19.752 0 0 0 14.548 17.264l177.704 47.708a19.688 19.688 0 0 0 10.238 0.002l177.812-47.67a19.754 19.754 0 0 0 14.554-17.264l39.592-428.932c0.09-0.764 0.136-1.542 0.136-2.332 0.004-10.91-8.836-19.754-19.746-19.754z m-332.086 127.29H626.196l-1.222 13.138h-190.38a19.748 19.748 0 0 0-19.67 21.57l4.98 53.916a19.754 19.754 0 0 0 19.67 17.938H616.368l-11.678 126.476-93.25 25.004-93.206-25.002-4.524-49.312h14.974l2.372 25.898a19.752 19.752 0 0 0 14.666 17.308l60.672 15.89a19.708 19.708 0 0 0 10.766-0.216l60.018-15.672a19.76 19.76 0 0 0 14.68-17.292l6.328-68.302a19.752 19.752 0 0 0-19.67-21.576h-170.714l-11.026-119.766z m331.302 516.528H294.83c-124.896 0-226.506-101.636-226.506-226.566V296.358c0-124.908 101.61-226.526 226.506-226.526h433.248c124.918 0 226.544 101.62 226.544 226.526v433.198c0.002 124.928-101.626 226.566-226.544 226.566zM294.83 89.636c-113.976 0-206.702 92.734-206.702 206.72v433.198c0 114.008 92.726 206.762 206.702 206.762h433.248c113.996 0 206.74-92.754 206.74-206.762V296.358c0-113.986-92.744-206.72-206.74-206.72H294.83z" fill="#80330F" p-id="6813"></path><path d="M361.678 270.08h25.33v26.804h27.672v-80.106h-27.672v26.456h-25.33v-26.456h-27.672v80.106h27.672zM451.076 296.884h27.674v-53.494h24.352v-26.612h-76.38v26.612h24.354zM542.28 257.198l19.066 28.5h0.46l19.032-28.5v39.686h27.594v-80.106h-28.87l-17.756 28.192-17.714-28.192h-28.87v80.106h27.058zM688.79 270.426h-38.944v-53.648h-27.676v80.106h66.62zM294.096 332.058l39.6 429.41 177.704 47.708 177.812-47.67 39.638-429.448H294.096z m348.878 140.428h-208.38l4.98 53.916H638.03l-14.934 161.746-111.62 29.93h-0.076l-111.58-29.93-7.758-84.58h54.652l4.014 43.852 60.672 15.89 0.078-0.038 60.71-15.854 6.328-68.302h-188.732l-14.666-159.278h272.756l-4.9 52.648z" fill="#FFFFFF" p-id="6814"></path><path d="M361.678 270.08h25.33v26.804h27.672v-80.106h-27.672v26.456h-25.33v-26.456h-27.672v80.106h27.672zM451.076 296.884h27.674v-53.494h24.352v-26.612h-76.38v26.612h24.354zM542.28 257.198l19.066 28.5h0.46l19.032-28.5v39.686h27.594v-80.106h-28.87l-17.756 28.192-17.714-28.192h-28.87v80.106h27.058zM688.79 270.426h-38.944v-53.648h-27.676v80.106h66.62zM294.096 332.058l39.6 429.41 177.704 47.708 177.812-47.67 39.638-429.448H294.096z m348.878 140.428h-208.38l4.98 53.916H638.03l-14.934 161.746-111.62 29.93h-0.076l-111.58-29.93-7.758-84.58h54.652l4.014 43.852 60.672 15.89 0.078-0.038 60.71-15.854 6.328-68.302h-188.732l-14.666-159.278h272.756l-4.9 52.648z" fill="#FFFFFF" p-id="6815"></path></svg>