<svg t="1605862070867" class="icon" viewBox="0 0 4710 1024" version="1.1" xmlns="http://www.w3.org/2000/svg" p-id="11641" width="192" height="192"><path d="M882.4832 7.9872c-56.5248 0-102.263467 44.373333-102.263467 99.1232v516.3008L174.6944 37.205333A104.925867 104.925867 0 0 0 63.0784 15.9744C24.9856 31.266133 0.068267 67.3792 0 107.383467v755.370666c0 35.4304 19.524267 68.130133 51.2 85.8112 31.607467 17.681067 70.587733 17.681067 102.263467 0 31.675733-17.749333 51.2-50.3808 51.2-85.8112V346.453333l605.5936 586.410667a104.6528 104.6528 0 0 0 111.4112 21.367467 98.986667 98.986667 0 0 0 63.010133-91.477334V107.383467a97.621333 97.621333 0 0 0-29.9008-70.2464 104.174933 104.174933 0 0 0-72.362667-29.149867h0.068267z m1142.920533 436.224l-415.744 1.160533c-55.0912 1.8432-98.850133 45.738667-98.850133 99.1232 0 53.4528 43.690667 97.28 98.9184 99.1232l250.606933-1.365333-60.893866 120.149333h-322.696534l-159.9488-272.7936 161.109334-282.965333h342.971733l79.872 158.788267h206.2336L1976.797867 64.9216l-28.125867-55.773867h-592.2816l-27.989333 50.858667-217.565867 382.5664-28.125867 48.810667 28.125867 48.196266 217.565867 370.210134 29.354666 50.858666h569.070934l28.194133-56.661333 162.474667-316.962133 73.045333-143.633067h-165.205333v0.8192z m367.684267-436.224c-55.637333 2.730667-99.669333 46.421333-101.034667 100.352v258.048h204.663467v-258.048c-1.501867-54.818133-47.104-98.850133-103.6288-100.352zM3540.445867 17.749333a104.789333 104.789333 0 0 0-111.4112 21.504l-605.661867 586.205867V109.226667c0-54.613333-45.806933-98.986667-102.331733-98.986667-56.456533 0-102.263467 44.373333-102.263467 98.986667v755.438933c0 40.072533 24.917333 76.1856 63.146667 91.477333 38.229333 15.36 82.193067 6.826667 111.479466-21.435733l605.525334-586.3424v516.3008c1.911467 53.384533 47.172267 95.709867 102.4 95.709867 55.159467 0 100.420267-42.325333 102.4-95.709867V109.226667c0-40.004267-24.9856-76.117333-63.2832-91.477334z m821.384533 468.445867l318.464-307.2a96.802133 96.802133 0 0 0 0.273067-139.946667 104.721067 104.721067 0 0 0-144.725334-0.273066l-318.805333 307.6096-318.805333-307.6096a104.789333 104.789333 0 0 0-144.725334-2.2528 96.938667 96.938667 0 0 0-2.321066 140.151466l2.525866 2.389334 318.395734 307.131733-317.44 306.517333a96.8704 96.8704 0 0 0-0.136534 140.151467 104.789333 104.789333 0 0 0 144.725334 0.2048l317.917866-306.517333 317.8496 306.517333c25.941333 24.9856 63.556267 34.679467 98.850134 25.463467 35.293867-9.216 62.805333-35.976533 72.226133-70.178134a96.938667 96.938667 0 0 0-26.624-95.573333l-317.44-306.5856h-0.2048z m-2069.7088-40.277333v414.651733c-0.750933 35.362133 18.090667 68.4032 49.3568 86.698667 31.266133 18.363733 70.314667 19.114667 102.263467 2.048a98.7136 98.7136 0 0 0 52.974933-88.746667V445.781333h-204.5952z" p-id="11642"></path></svg>