<svg t="1605861441235" class="icon" viewBox="0 0 1024 1024" version="1.1" xmlns="http://www.w3.org/2000/svg" p-id="11521" width="192" height="192"><path d="M850.15 273.47L546.55 90.78a65.998 65.998 0 0 0-67.66-0.23L174.1 271.22a65.955 65.955 0 0 0-32.33 56.54l-1.21 367.27a65.972 65.972 0 0 0 31.96 56.74l303.6 182.69c20.8 12.52 46.78 12.6 67.67 0.23l304.78-180.66a65.958 65.958 0 0 0 32.33-56.54l1.21-367.27c0.08-23.22-12.07-44.77-31.96-56.75z m-28.6 418.18c-0.02 6.05-3.2 11.65-8.38 14.78l-294.1 177.25a17.304 17.304 0 0 1-17.96-0.06L208.18 704.41a17.315 17.315 0 0 1-8.27-14.83l1.17-358.02c0.02-6.05 3.2-11.64 8.38-14.77l294.08-177.25a17.296 17.296 0 0 1 17.98 0.06l292.93 179.21c5.16 3.15 8.29 8.78 8.27 14.83l-1.17 358.01z" p-id="11522"></path><path d="M511.21 618.7l145.15-254.52h-63.58l-81.57 148.66-81.58-148.66h-63.57z" p-id="11523"></path><path d="M511.31 802.9l253.3-438.72H653.67L511.31 620.42 368.96 364.18H258.02z" p-id="11524"></path></svg>